<svg width="400" height="400" viewBox="0 0 400 400" fill="none" xmlns="http://www.w3.org/2000/svg">
<circle cx="200" cy="200" r="192" fill="#0283DF"/>
<circle cx="200" cy="200" r="192" fill="url(#paint0_linear_91_380)"/>
<circle cx="200" cy="200" r="132" fill="#38A8F8"/>
<path d="M160.206 196.678L199.81 137.954C202.447 134.043 208.496 137.123 206.886 141.556L194.562 175.475C193.614 178.083 195.546 180.84 198.322 180.84H235.264C238.511 180.84 240.405 184.504 238.528 187.153L183.844 264.347C181.054 268.285 174.968 264.827 176.923 260.414L199.91 208.535C201.082 205.89 199.145 202.914 196.253 202.914H163.522C160.318 202.914 158.414 199.335 160.206 196.678Z" fill="#C1C1C1"/>
<path d="M160.206 196.678L199.81 137.954C202.447 134.043 208.496 137.123 206.886 141.556L194.562 175.475C193.614 178.083 195.546 180.84 198.322 180.84H235.264C238.511 180.84 240.405 184.504 238.528 187.153L183.844 264.347C181.054 268.285 174.968 264.827 176.923 260.414L199.91 208.535C201.082 205.89 199.145 202.914 196.253 202.914H163.522C160.318 202.914 158.414 199.335 160.206 196.678Z" fill="white"/>
<mask id="mask0_91_380" style="mask-type:alpha" maskUnits="userSpaceOnUse" x="159" y="136" width="81" height="131">
<path d="M160.206 196.678L199.81 137.954C202.447 134.043 208.496 137.123 206.886 141.556L194.562 175.475C193.614 178.083 195.546 180.84 198.322 180.84H235.264C238.511 180.84 240.405 184.504 238.528 187.153L183.844 264.347C181.054 268.285 174.968 264.827 176.923 260.414L199.91 208.535C201.082 205.89 199.145 202.914 196.253 202.914H163.522C160.318 202.914 158.414 199.335 160.206 196.678Z" fill="#C1C1C1"/>
<path d="M160.206 196.678L199.81 137.954C202.447 134.043 208.496 137.123 206.886 141.556L194.562 175.475C193.614 178.083 195.546 180.84 198.322 180.84H235.264C238.511 180.84 240.405 184.504 238.528 187.153L183.844 264.347C181.054 268.285 174.968 264.827 176.923 260.414L199.91 208.535C201.082 205.89 199.145 202.914 196.253 202.914H163.522C160.318 202.914 158.414 199.335 160.206 196.678Z" fill="white"/>
</mask>
<g mask="url(#mask0_91_380)">
<rect x="201.615" y="132" width="15.1776" height="28" rx="2" transform="rotate(33.8961 201.615 132)" fill="#FFA306"/>
<rect x="185.615" y="240" width="15.1776" height="28" rx="2" transform="rotate(33.8961 185.615 240)" fill="#FB7176"/>
</g>
<defs>
<linearGradient id="paint0_linear_91_380" x1="113" y1="28" x2="326" y2="380.5" gradientUnits="userSpaceOnUse">
<stop stop-color="#1A86D3"/>
<stop offset="0.996039" stop-color="#000102"/>
</linearGradient>
</defs>
</svg>

