<svg width="320" height="320" viewBox="0 0 320 320" fill="none" xmlns="http://www.w3.org/2000/svg">
<g clip-path="url(#clip0_61_2)">
<mask id="path-1-outside-1_61_2" maskUnits="userSpaceOnUse" x="-36.3092" y="-36.965" width="392.436" height="393.85" fill="black">
<rect fill="white" x="-36.3092" y="-36.965" width="392.436" height="393.85"/>
<path d="M150.329 16.4062C150.046 11.7938 153.557 7.80092 158.178 7.77127C186.878 7.58716 215.109 15.5192 239.578 30.735C266.42 47.4266 287.403 72.0564 299.619 101.209C311.834 130.362 314.676 162.593 307.751 193.434C300.825 224.274 284.476 252.196 260.969 273.327C237.462 294.459 207.963 307.752 176.562 311.365C145.16 314.978 113.413 308.732 85.7212 293.491C58.0296 278.251 35.7659 254.772 22.0173 226.31C9.48442 200.365 4.5934 171.451 7.82241 142.933C8.34232 138.341 12.6853 135.274 17.2416 136.045L35.5379 139.142C40.0942 139.913 43.131 144.232 42.6873 148.831C40.6341 170.114 44.4487 191.611 53.7951 210.96C64.3578 232.826 81.4624 250.864 102.737 262.573C124.012 274.282 148.403 279.081 172.528 276.306C196.653 273.53 219.316 263.317 237.376 247.082C255.436 230.847 267.997 209.396 273.317 185.702C278.638 162.008 276.454 137.245 267.069 114.848C257.685 92.4503 241.564 73.5279 220.942 60.7041C202.694 49.357 181.723 43.2824 160.343 43.0652C155.722 43.0183 151.75 39.5403 151.467 34.9279L150.329 16.4062Z"/>
</mask>
<path d="M150.329 16.4062C150.046 11.7938 153.557 7.80092 158.178 7.77127C186.878 7.58716 215.109 15.5192 239.578 30.735C266.42 47.4266 287.403 72.0564 299.619 101.209C311.834 130.362 314.676 162.593 307.751 193.434C300.825 224.274 284.476 252.196 260.969 273.327C237.462 294.459 207.963 307.752 176.562 311.365C145.16 314.978 113.413 308.732 85.7212 293.491C58.0296 278.251 35.7659 254.772 22.0173 226.31C9.48442 200.365 4.5934 171.451 7.82241 142.933C8.34232 138.341 12.6853 135.274 17.2416 136.045L35.5379 139.142C40.0942 139.913 43.131 144.232 42.6873 148.831C40.6341 170.114 44.4487 191.611 53.7951 210.96C64.3578 232.826 81.4624 250.864 102.737 262.573C124.012 274.282 148.403 279.081 172.528 276.306C196.653 273.53 219.316 263.317 237.376 247.082C255.436 230.847 267.997 209.396 273.317 185.702C278.638 162.008 276.454 137.245 267.069 114.848C257.685 92.4503 241.564 73.5279 220.942 60.7041C202.694 49.357 181.723 43.2824 160.343 43.0652C155.722 43.0183 151.75 39.5403 151.467 34.9279L150.329 16.4062Z" fill="#262626"/>
<path d="M150.329 16.4062C150.046 11.7938 153.557 7.80092 158.178 7.77127C186.878 7.58716 215.109 15.5192 239.578 30.735C266.42 47.4266 287.403 72.0564 299.619 101.209C311.834 130.362 314.676 162.593 307.751 193.434C300.825 224.274 284.476 252.196 260.969 273.327C237.462 294.459 207.963 307.752 176.562 311.365C145.16 314.978 113.413 308.732 85.7212 293.491C58.0296 278.251 35.7659 254.772 22.0173 226.31C9.48442 200.365 4.5934 171.451 7.82241 142.933C8.34232 138.341 12.6853 135.274 17.2416 136.045L35.5379 139.142C40.0942 139.913 43.131 144.232 42.6873 148.831C40.6341 170.114 44.4487 191.611 53.7951 210.96C64.3578 232.826 81.4624 250.864 102.737 262.573C124.012 274.282 148.403 279.081 172.528 276.306C196.653 273.53 219.316 263.317 237.376 247.082C255.436 230.847 267.997 209.396 273.317 185.702C278.638 162.008 276.454 137.245 267.069 114.848C257.685 92.4503 241.564 73.5279 220.942 60.7041C202.694 49.357 181.723 43.2824 160.343 43.0652C155.722 43.0183 151.75 39.5403 151.467 34.9279L150.329 16.4062Z" stroke="white" stroke-width="16.7344" mask="url(#path-1-outside-1_61_2)"/>
<circle cx="161" cy="157" r="87.5" fill="#262626"/>
<circle cx="161" cy="157" r="87.5" fill="#60A5FA"/>
<circle cx="161" cy="157" r="87.5" stroke="white" stroke-width="9"/>
<path d="M141.567 7.18766C142.575 7.13446 143.573 7.37925 144.44 7.89898C145.317 8.42423 146.01 9.19799 146.45 10.1138C146.889 11.0282 147.059 12.0486 146.958 13.0543C146.858 14.0487 146.493 15.0021 145.906 15.8105L145.906 15.8118L65.3932 128.983L65.3917 128.985C64.7581 129.874 63.8754 130.564 62.8469 130.946C61.8162 131.329 60.6921 131.381 59.63 131.076C58.5677 130.77 57.6418 130.13 56.9728 129.256C56.3614 128.457 55.997 127.504 55.8943 126.512L42.7089 81.7781C42.6652 81.6298 42.6396 81.4766 42.6312 81.3222C42.6093 80.9245 42.7032 80.6071 42.7561 80.4531C42.8175 80.2743 42.8929 80.1206 42.9543 80.0057C43.077 79.7761 43.229 79.5482 43.3763 79.3435C43.6765 78.9263 44.0893 78.4211 44.5714 77.862C45.5437 76.7344 46.9177 75.2489 48.5387 73.5436C51.7853 70.1282 56.1125 65.7364 60.3955 61.3735C64.6891 56.9996 68.939 52.6549 72.0647 49.3036C72.4707 48.8684 72.8552 48.4515 73.2175 48.0556C72.9364 48.1632 72.6454 48.2741 72.3472 48.3902C68.4067 49.9254 63.1987 52.1186 57.9379 54.3419C52.6939 56.5582 47.3978 58.8037 43.3305 60.4213C41.3016 61.2282 39.5401 61.8946 38.2276 62.3244C37.5798 62.5365 36.983 62.7101 36.494 62.8095C36.2569 62.8577 35.9676 62.9048 35.6743 62.9102C35.527 62.9129 35.3169 62.9076 35.0811 62.8584C34.862 62.8127 34.4679 62.6982 34.0944 62.3775C33.9684 62.2693 33.8568 62.1456 33.7613 62.0097L5.80102 22.2033C5.08046 21.5102 4.57588 20.6258 4.33174 19.6577C4.06454 18.598 4.11772 17.48 4.4723 16.4486C4.82688 15.4172 5.47246 14.503 6.33633 13.833C7.20152 13.162 8.25214 12.7629 9.35311 12.716L9.35404 12.7163L141.531 7.1888L141.532 7.18787C141.537 7.18756 141.542 7.18793 141.547 7.18764L141.567 7.18673L141.567 7.18766Z" fill="#262626" stroke="white" stroke-width="4" stroke-linecap="round" stroke-linejoin="round"/>
</g>
<defs>
<clipPath id="clip0_61_2">
<rect width="320" height="320" fill="white"/>
</clipPath>
</defs>
</svg>
